<?xml version="1.0" standalone="no"?>
<!DOCTYPE svg PUBLIC "-//W3C//DTD SVG 20010904//EN"
 "http://www.w3.org/TR/2001/REC-SVG-20010904/DTD/svg10.dtd">
<svg version="1.0" xmlns="http://www.w3.org/2000/svg"
 width="900.000000pt" height="504.000000pt" viewBox="0 0 900.000000 504.000000"
 preserveAspectRatio="xMidYMid meet">
<metadata>
Created by potrace 1.10, written by Peter Selinger 2001-2011
</metadata>
<g transform="translate(0.000000,504.000000) scale(0.100000,-0.100000)"
fill="#000000" stroke="none">
<path d="M4255 4984 c-152 -24 -291 -55 -380 -86 -16 -5 -43 -13 -60 -18 -16
-4 -43 -13 -60 -20 -128 -54 -221 -99 -303 -147 -41 -24 -75 -43 -77 -43 -2 0
-34 -21 -72 -46 -338 -231 -629 -561 -792 -899 -93 -194 -141 -333 -195 -565
-53 -227 -53 -713 0 -940 27 -118 46 -185 60 -218 8 -18 14 -39 14 -47 0 -8 6
-29 14 -47 8 -18 24 -58 36 -88 93 -231 257 -495 427 -685 92 -102 354 -335
378 -335 4 0 24 -13 44 -28 81 -63 271 -166 411 -222 30 -12 70 -28 88 -36 18
-8 39 -14 47 -14 8 0 29 -6 47 -14 78 -33 261 -70 419 -85 274 -26 751 1 894
50 17 6 44 15 60 19 111 32 384 160 510 241 17 10 37 22 45 26 34 16 217 144
248 173 18 17 53 49 79 71 135 118 346 378 423 524 6 11 19 34 30 50 30 46
137 264 155 315 110 315 140 498 140 845 0 203 -6 265 -41 450 -60 314 -216
657 -423 930 -25 33 -48 62 -51 65 -3 3 -41 45 -85 94 -198 221 -491 430 -775
554 -19 8 -43 19 -52 23 -98 48 -381 127 -513 143 -22 3 -69 10 -105 15 -94
15 -477 11 -585 -5z m734 -119 c93 -17 188 -40 236 -56 17 -6 44 -14 60 -19
17 -4 41 -12 55 -18 14 -5 50 -20 80 -32 70 -28 226 -105 265 -130 17 -11 36
-23 44 -27 8 -3 47 -30 87 -58 277 -199 517 -456 680 -730 167 -278 247 -525
280 -855 27 -280 10 -527 -56 -800 -27 -114 -51 -194 -61 -204 -5 -6 -9 -19
-9 -29 0 -10 -6 -31 -13 -45 -8 -15 -21 -43 -29 -62 -25 -57 -88 -183 -109
-215 -10 -16 -23 -39 -29 -50 -16 -33 -31 -53 -124 -180 -132 -179 -314 -353
-499 -479 -38 -25 -70 -46 -72 -46 -2 0 -21 -12 -42 -26 -21 -14 -60 -37 -88
-50 -27 -14 -57 -29 -65 -34 -14 -9 -122 -58 -185 -85 -16 -6 -47 -20 -68 -29
-21 -9 -44 -16 -52 -16 -8 0 -29 -6 -47 -14 -68 -29 -231 -66 -395 -91 -196
-29 -507 -16 -693 30 -165 41 -188 47 -295 88 -135 51 -272 115 -355 166 -19
11 -42 24 -50 28 -26 12 -165 109 -252 176 -136 106 -274 248 -390 402 -46 62
-152 230 -169 268 -5 12 -13 29 -19 37 -14 22 -60 121 -70 150 -5 14 -18 50
-30 80 -165 429 -181 951 -43 1440 89 317 315 682 577 934 110 106 319 267
386 299 8 4 29 16 45 26 55 35 297 151 315 151 5 0 24 6 42 14 51 22 223 69
318 87 110 21 245 27 504 23 168 -2 278 -9 335 -19z"/>
<path d="M3429 4404 c-54 -55 -68 -65 -90 -60 -35 7 -68 -16 -51 -36 13 -16 7
-28 -15 -28 -27 0 -71 -42 -83 -81 -18 -54 1 -112 45 -139 39 -24 54 -25 99
-3 43 20 61 9 71 -44 3 -19 17 -52 29 -72 45 -71 96 -171 96 -186 0 -8 -6 -15
-12 -15 -35 0 -158 48 -285 110 -111 55 -151 70 -186 70 -100 0 -207 -81 -276
-210 -46 -86 -102 -204 -124 -265 -63 -170 -68 -185 -78 -233 -5 -23 -12 -50
-17 -60 -38 -76 -52 -666 -19 -857 9 -55 26 -131 37 -170 12 -38 25 -83 30
-100 16 -56 41 -120 51 -129 5 -6 9 -16 9 -23 0 -18 85 -193 136 -280 59 -100
154 -223 199 -257 21 -16 58 -37 84 -46 47 -18 54 -26 110 -149 15 -31 91
-103 217 -206 71 -58 209 -147 294 -190 41 -20 87 -43 102 -51 14 -8 33 -14
42 -14 8 0 30 -6 48 -14 91 -39 209 -62 443 -87 300 -31 514 -25 705 22 25 6
61 15 80 19 120 27 326 118 490 217 189 115 301 204 456 365 123 128 201 230
283 368 34 58 66 112 71 120 5 8 18 35 30 60 12 25 28 58 35 73 8 16 15 44 15
63 0 19 9 47 20 62 28 38 57 120 81 232 20 88 21 125 21 516 -1 392 -2 426
-22 500 -11 44 -30 105 -41 135 -11 30 -24 65 -28 79 -15 48 -111 247 -158
330 -51 87 -123 172 -190 222 -79 60 -80 61 -94 113 -25 93 -101 174 -319 340
l-65 50 -1106 3 -1107 2 -63 -66z m1716 -44 c3 -6 -2 -13 -12 -16 -10 -4 -46
-19 -81 -35 -34 -16 -68 -29 -75 -29 -7 0 -18 -5 -24 -11 -6 -6 -26 -14 -44
-19 -19 -5 -76 -21 -128 -35 -51 -14 -102 -25 -113 -25 -18 0 -41 -6 -153 -41
-47 -15 -49 -15 -53 4 -2 11 14 33 45 61 53 49 52 67 -5 47 -62 -22 -133 -72
-220 -154 -80 -76 -84 -79 -120 -72 -20 4 -49 13 -65 21 -31 16 -123 15 -120
-1 1 -5 10 -12 20 -14 26 -5 74 -41 68 -51 -3 -5 -48 -9 -101 -9 -70 0 -102
-4 -120 -16 -36 -23 -30 -33 28 -42 56 -9 61 -22 13 -39 -63 -23 -157 -73
-185 -99 -23 -21 -76 -19 -86 3 -4 9 -12 53 -18 97 -12 85 -9 81 -83 101 -9 2
-13 33 -13 108 0 58 -7 137 -15 177 -9 40 -13 79 -11 86 4 11 165 13 835 13
546 0 832 -3 836 -10z m517 -7 c60 -23 147 -90 256 -197 64 -63 91 -97 90
-111 -2 -14 -25 -31 -72 -55 -90 -46 -101 -62 -61 -98 47 -42 106 -58 155 -42
22 7 45 19 51 27 6 7 26 13 45 13 37 0 69 -35 141 -150 49 -80 134 -257 146
-305 3 -11 16 -51 30 -90 43 -126 73 -255 101 -445 19 -121 21 -402 5 -470 -6
-25 -14 -70 -19 -100 -9 -68 -45 -214 -72 -295 -5 -16 -13 -43 -18 -60 -24
-90 -129 -297 -227 -448 -71 -109 -130 -173 -169 -183 -16 -4 -24 -13 -24 -28
0 -66 -151 -200 -245 -218 -14 -2 -19 -10 -17 -27 4 -25 -1 -29 -98 -95 -108
-72 -247 -142 -380 -191 -19 -7 -53 -19 -75 -28 -169 -62 -274 -77 -548 -77
-311 0 -597 30 -722 77 -98 37 -276 123 -383 186 -66 38 -83 53 -80 69 3 19
60 49 121 62 55 13 15 23 -105 29 -132 6 -187 19 -215 50 -15 16 -18 37 -16
136 1 64 5 140 8 169 7 59 -7 69 -41 31 -38 -43 -116 -99 -139 -99 -37 0 -130
119 -227 290 -42 73 -59 108 -91 180 -39 91 -47 112 -47 125 0 8 -6 29 -14 47
-28 66 -69 253 -88 398 -35 283 4 670 88 868 8 18 14 39 14 47 0 8 7 31 16 52
9 21 22 52 29 68 28 68 44 104 81 178 69 138 78 149 141 173 43 17 47 17 101
-2 31 -10 71 -31 88 -46 36 -32 145 -88 170 -88 44 0 129 -38 170 -76 39 -36
44 -45 44 -84 0 -24 -7 -82 -17 -130 -10 -53 -13 -98 -8 -116 l7 -29 10 25
c26 64 50 110 59 110 15 0 10 -49 -8 -77 -15 -23 -18 -51 -18 -173 l0 -146 34
-67 c49 -97 64 -90 60 28 -4 101 8 127 26 55 12 -47 41 -72 52 -44 3 9 3 82 0
163 -4 109 -3 138 5 116 6 -16 16 -37 23 -45 7 -8 16 -26 20 -39 11 -36 25 -6
25 56 0 58 25 133 44 133 7 0 21 -18 32 -40 24 -50 44 -52 44 -5 0 69 70 237
101 243 11 2 18 -6 22 -25 4 -15 15 -39 26 -53 16 -20 21 -22 35 -11 10 8 16
30 17 55 2 133 32 174 69 94 20 -46 48 -79 94 -115 36 -28 56 -29 56 -3 0 11
-5 20 -10 20 -16 0 -30 44 -16 52 6 4 16 2 21 -5 39 -49 193 -137 239 -137 39
0 32 20 -29 80 -52 51 -70 90 -42 90 6 0 36 -20 66 -44 106 -87 466 -285 485
-266 7 7 -15 45 -79 136 -6 9 -6 17 1 24 7 7 35 -15 92 -71 81 -81 99 -115 65
-125 -10 -3 -31 -11 -48 -18 -96 -42 -179 -76 -186 -76 -27 0 -160 -74 -190
-107 -45 -46 -73 -99 -64 -121 4 -12 12 -8 36 22 25 29 34 34 45 25 8 -6 14
-22 14 -34 0 -69 65 -152 148 -189 l42 -19 53 26 c56 29 93 58 120 97 21 30
24 174 5 245 -11 41 -10 46 7 60 24 18 55 19 75 2 25 -19 50 -82 50 -124 0
-51 10 -60 32 -31 15 20 19 21 28 8 7 -11 12 -12 20 -4 9 9 8 20 -4 42 -9 17
-16 39 -16 49 0 25 -35 132 -55 168 -9 17 -27 48 -40 70 -24 40 -33 85 -16 85
25 0 190 -304 203 -375 2 -11 11 -21 20 -23 14 -3 15 4 11 40 -3 24 -17 75
-30 113 -28 78 -41 155 -25 155 9 0 50 -79 115 -220 21 -47 54 -138 63 -176 1
-6 19 -10 41 -10 l38 2 3 104 c2 73 -2 116 -13 148 -17 52 -19 88 -6 97 6 3
33 -15 61 -40 58 -51 80 -57 80 -20 0 54 -79 219 -147 308 -71 94 -41 109 93
46 108 -51 164 -47 113 8 -29 30 -134 113 -145 113 -4 0 -15 6 -23 14 -9 8
-32 22 -51 33 -19 10 -68 40 -107 67 -130 85 -140 126 -34 126 78 0 92 12 48
39 -19 11 -40 21 -48 21 -7 0 -31 6 -54 14 -22 7 -67 22 -100 32 -85 25 -88
29 -82 90 5 48 -2 122 -19 217 l-7 37 201 0 c165 0 209 -3 244 -17z m-2282
-96 c0 -13 -63 -110 -90 -140 -15 -15 -19 -15 -29 -4 -17 21 -1 53 54 115 44
48 65 58 65 29z m1753 -94 c9 -27 17 -56 17 -66 0 -39 54 -120 135 -203 125
-128 193 -201 211 -229 8 -13 22 -54 30 -92 7 -37 30 -100 50 -140 37 -73 38
-97 8 -128 -26 -25 -57 -16 -103 29 -29 30 -61 49 -100 62 -31 10 -63 23 -71
30 -44 33 -102 44 -233 44 -180 0 -222 12 -406 119 -74 43 -122 55 -191 47
-76 -9 -158 8 -223 46 -76 44 -97 39 -207 -51 -30 -25 -100 -91 -156 -148 -85
-86 -106 -103 -132 -103 -46 0 -80 54 -117 185 -7 28 -16 57 -20 66 -8 21 20
49 49 49 20 0 57 17 171 79 17 9 63 39 103 66 120 81 145 94 184 95 47 0 98
23 168 76 85 63 101 66 333 70 l207 4 53 38 c28 22 72 49 97 62 25 12 52 26
60 31 8 4 26 8 41 8 21 1 28 -6 42 -46z m-72 -1092 c24 -25 29 -38 29 -80 0
-41 -4 -53 -25 -69 -49 -39 -115 11 -115 87 0 29 49 91 72 91 5 0 23 -13 39
-29z"/>
<path d="M4071 3246 c-6 -7 -22 -11 -36 -8 -31 5 -58 -15 -49 -37 3 -9 10 -47
15 -85 5 -38 11 -72 14 -75 9 -8 25 21 25 46 0 12 11 34 24 49 22 27 25 27 65
15 23 -6 45 -19 48 -27 3 -8 -4 -33 -15 -57 -32 -68 -35 -101 -17 -164 20 -69
59 -121 111 -148 20 -11 37 -24 36 -30 -1 -5 -28 -12 -59 -15 -43 -4 -59 -9
-61 -22 -5 -24 22 -29 148 -30 117 0 158 12 106 32 -15 5 -39 10 -53 10 l-26
0 23 25 c13 14 29 25 35 25 14 0 79 67 96 100 7 14 15 43 18 65 5 32 11 41 28
43 17 3 26 -3 33 -23 5 -14 14 -23 20 -20 19 12 10 47 -22 89 -55 68 -68 77
-223 141 -49 21 -94 41 -100 45 -10 7 -160 70 -168 70 -3 0 -10 -6 -16 -14z
m355 -202 c17 -13 34 -35 37 -51 17 -92 -92 -113 -129 -25 -18 44 -18 62 2 90
18 26 41 23 90 -14z"/>
<path d="M5607 2723 c-14 -16 -42 -59 -62 -97 -61 -118 -106 -178 -201 -273
-75 -74 -200 -173 -219 -173 -14 0 -139 -97 -153 -119 -31 -48 -48 -52 -62
-15 -10 24 -12 25 -68 18 -31 -3 -69 -13 -84 -20 -15 -8 -34 -14 -42 -14 -9 0
-33 -16 -54 -35 -42 -37 -52 -36 -52 5 0 39 -20 51 -98 60 -38 4 -78 12 -89
19 -12 6 -31 11 -42 11 -11 0 -37 7 -58 16 -85 36 -100 43 -138 61 -22 10 -58
30 -80 44 -53 34 -80 42 -103 30 -23 -12 -52 -99 -52 -158 0 -41 -2 -45 -35
-59 -23 -9 -35 -21 -35 -34 0 -19 6 -22 75 -34 42 -7 164 13 192 32 22 13 30
13 86 -3 72 -22 107 -42 107 -61 0 -17 -65 -19 -106 -4 -41 16 -52 -1 -29 -44
17 -31 17 -39 5 -78 -7 -24 -17 -61 -21 -83 -4 -22 -12 -58 -18 -80 -17 -63
-14 -103 8 -115 37 -19 93 22 105 77 7 30 4 35 -29 54 -54 32 -40 45 43 41 68
-4 73 -3 102 26 48 48 32 132 -25 132 -13 0 -27 5 -30 11 -11 17 26 49 55 49
41 0 59 -28 67 -106 l8 -69 95 4 c59 2 102 9 115 17 47 33 63 -1 18 -40 -24
-21 -25 -26 -15 -52 6 -16 16 -68 21 -117 15 -125 -4 -156 -81 -142 -18 4 -44
15 -58 25 l-25 19 20 37 c14 27 19 53 18 93 -2 35 2 63 12 77 8 13 15 28 15
34 0 29 -110 -13 -130 -49 -8 -16 -5 -23 16 -40 15 -12 31 -21 35 -21 5 0 9
-7 9 -15 0 -8 -9 -15 -19 -15 -11 0 -26 -3 -34 -6 -11 -4 -23 11 -41 50 -26
55 -51 71 -63 40 -11 -29 37 -161 62 -170 28 -11 16 -43 -26 -70 -52 -32 -74
-27 -54 13 19 37 9 95 -19 122 l-21 20 -32 -20 c-19 -12 -37 -35 -43 -55 -13
-39 -38 -45 -58 -13 -18 28 -38 11 -46 -40 -6 -41 -44 -81 -75 -81 -28 0 -61
-30 -78 -71 -8 -21 -28 -50 -44 -63 -60 -51 -31 -56 166 -30 177 22 894 23
1099 0 82 -9 153 -13 158 -8 5 5 -9 19 -29 33 l-38 24 -6 105 c-9 159 -39 210
-132 220 -62 6 -77 32 -30 52 47 20 100 66 113 98 10 24 10 40 1 69 -6 21 -11
57 -11 79 0 33 5 44 29 61 44 32 128 45 158 26 13 -9 23 -24 23 -33 0 -10 6
-38 14 -63 8 -24 17 -55 20 -69 14 -67 89 -144 205 -212 73 -42 246 -128 259
-128 19 0 14 24 -15 82 -100 195 -174 532 -188 853 -8 198 -26 347 -43 368
-23 26 -64 21 -95 -10z m35 -378 c9 -66 17 -145 17 -175 1 -64 26 -241 47
-320 8 -30 15 -77 17 -105 l2 -50 -33 2 c-55 2 -92 47 -137 163 -31 82 -47
104 -116 170 -63 60 -69 69 -69 105 0 53 42 133 119 228 117 144 130 142 153
-18z m-336 -181 c5 -27 2 -42 -13 -63 -11 -15 -20 -39 -20 -54 0 -38 -12 -46
-30 -20 l-15 23 -25 -20 c-31 -24 -39 -25 -47 -4 -9 23 9 49 50 75 23 14 43
38 55 66 21 50 35 49 45 -3z m-1211 -13 c17 -10 36 -29 43 -44 11 -22 10 -30
-4 -52 -13 -19 -25 -25 -54 -25 -53 0 -60 25 -15 51 34 20 34 21 17 45 -9 13
-22 24 -29 24 -6 0 -15 5 -18 10 -10 16 27 10 60 -9z m969 -159 c2 -4 -11 -21
-30 -36 -31 -25 -35 -32 -32 -69 2 -34 7 -43 25 -45 14 -2 26 4 33 18 17 33
37 8 44 -53 2 -29 8 -69 11 -89 6 -33 5 -38 -11 -38 -31 0 -45 15 -58 61 -12
41 -16 44 -52 49 -30 4 -42 11 -52 32 -7 15 -24 36 -37 46 -34 27 -32 36 14
57 22 9 52 30 67 46 26 27 67 38 78 21z m-332 -117 c-6 -14 -18 -25 -26 -25
-7 0 -19 -7 -26 -15 -21 -25 -83 -19 -110 10 -33 36 -16 51 41 37 49 -12 62
-9 84 25 15 23 18 24 33 10 13 -13 13 -21 4 -42z m120 -205 c5 -65 19 -100 39
-100 5 0 20 23 34 51 29 56 52 60 47 9 -2 -22 -18 -52 -47 -88 -47 -56 -56
-91 -30 -112 22 -18 19 -37 -9 -55 -28 -19 -50 -12 -93 28 -45 42 -46 91 -1
50 17 -15 19 -15 33 3 16 20 16 34 -6 167 -9 59 -9 83 -1 103 18 39 29 21 34
-56z m310 -239 c12 -12 22 -37 25 -63 9 -76 -38 -96 -157 -68 -28 7 -50 15
-50 19 0 4 27 35 60 69 63 66 87 75 122 43z"/>
<path d="M4937 2690 c-107 -8 -86 -25 37 -28 112 -3 147 2 130 17 -13 12 -90
18 -167 11z"/>
<path d="M3530 2602 c-61 -61 -31 -141 69 -184 48 -21 194 -73 246 -88 17 -5
50 -16 74 -25 33 -12 47 -13 55 -5 8 9 -16 38 -90 110 -149 143 -209 186 -306
217 -11 3 -29 -6 -48 -25z"/>
<path d="M4576 2531 c-8 -13 20 -40 50 -47 34 -9 76 11 72 34 -2 13 -15 18
-60 20 -31 2 -59 -1 -62 -7z"/>
<path d="M4508 2367 c-34 -28 -35 -47 -5 -73 55 -49 93 -61 185 -56 41 2 129
80 119 105 -11 29 -53 48 -99 45 -43 -4 -41 -7 15 -28 50 -18 18 -30 -79 -30
-77 0 -94 3 -94 15 0 8 8 15 18 15 10 0 27 7 38 15 18 13 16 14 -26 14 -32 0
-53 -6 -72 -22z"/>
<path d="M3791 1731 c-23 -14 -44 -81 -48 -153 -5 -78 4 -88 81 -85 40 2 50
-2 67 -23 l19 -25 20 24 c39 45 16 123 -55 191 -20 19 -41 45 -46 58 -9 24
-16 26 -38 13z"/>
</g>
</svg>
