<svg xmlns="http://www.w3.org/2000/svg" width="602" height="631" viewBox="0 0 602 631" version="1.1"><path d="M 82.187 5.010 C 80.984 7.765, 80 10.600, 80 11.310 C 80 12.019, 79.524 13.076, 78.941 13.659 C 77.866 14.734, 75.891 24.394, 73.963 38 C 73.378 42.125, 72.275 48.650, 71.512 52.500 C 70.748 56.350, 69.827 66.925, 69.464 76 C 68.909 89.912, 69.043 92.814, 70.321 94.498 C 73.137 98.212, 73.194 97.909, 76.413 62 C 78.234 41.688, 81.005 27.295, 86.232 11 C 87.379 7.425, 88.696 4.072, 89.159 3.550 C 90.867 1.621, 89.967 0, 87.187 0 C 84.769 0, 84.068 0.703, 82.187 5.010 M 176 5.650 C 160.162 25.511, 152.628 38, 156.487 38 C 157.201 38, 158.033 37.355, 158.336 36.567 C 159.433 33.709, 176.059 13.094, 178.896 11.074 C 180.498 9.933, 183.147 9, 184.782 9 C 188.253 9, 189.487 7.722, 190.334 3.250 L 190.950 -0 185.725 0.004 C 180.575 0.008, 180.435 0.089, 176 5.650 M 248.391 11.750 C 248.768 18.213, 249.522 27.775, 250.066 33 C 250.611 38.225, 251.299 44.842, 251.595 47.704 C 252.019 51.811, 252.566 53.045, 254.191 53.561 C 256.902 54.421, 257.694 52.965, 258.540 45.565 C 259.592 36.363, 263.219 30.657, 264.462 36.250 C 266.534 45.578, 268.895 86.514, 268.954 114.144 C 269.004 137.785, 270.209 153.490, 272.622 161.960 C 273.478 164.963, 274.535 170.962, 274.972 175.292 C 275.408 179.622, 276.280 183.680, 276.910 184.310 C 279.075 186.475, 281.441 183.602, 282.604 177.394 C 284.829 165.517, 285.857 163, 288.480 163 C 289.801 163, 291.160 163.450, 291.500 164 C 292.777 166.066, 294.864 164.885, 295.474 161.750 C 295.822 159.963, 296.725 156.925, 297.481 155 C 298.237 153.075, 299.121 150.262, 299.447 148.750 C 301.094 141.093, 310.981 151.062, 312.388 161.797 C 313.186 167.895, 315.877 173.677, 320.754 179.774 C 331.903 193.711, 355.243 191.504, 367.566 175.347 C 370.149 171.961, 370.807 169.990, 371.366 163.967 C 372.262 154.336, 373.531 151.963, 379.250 149.231 C 381.863 147.983, 383.997 146.633, 383.993 146.231 C 383.979 144.637, 380.259 139.988, 376.798 137.237 C 373.589 134.687, 365.419 130.796, 355.322 127.009 C 353.575 126.354, 351.373 124.965, 350.431 123.923 C 348.784 122.104, 348.890 121.950, 353.108 120.037 C 361.338 116.303, 373.628 117.446, 392 123.655 C 396.125 125.049, 401.702 126.485, 404.393 126.845 C 411.655 127.817, 412.042 129.135, 408.325 140.212 C 406.610 145.320, 404.950 152.571, 404.635 156.325 C 404.211 161.370, 403.271 164.531, 401.031 168.446 C 399.364 171.360, 398 174.560, 398 175.558 C 398 176.556, 397.274 180.326, 396.386 183.936 C 394.734 190.651, 392.449 195.281, 388.267 200.384 C 384.841 204.564, 382.146 210.235, 381.416 214.798 C 380.531 220.337, 382.863 222.500, 390.674 223.384 C 397.165 224.118, 401 226.139, 401 228.825 C 401 229.766, 399.774 232.328, 398.276 234.518 C 395.380 238.754, 390 249.546, 390 251.123 C 390 251.641, 387.975 256.134, 385.500 261.107 C 383.025 266.081, 381 270.776, 381 271.541 C 381 272.306, 380.356 274.410, 379.570 276.216 C 378.783 278.022, 377.109 282.200, 375.849 285.500 C 372.881 293.272, 364.977 305.168, 358.565 311.511 C 353.615 316.409, 345.035 321.252, 336 324.250 C 331.642 325.696, 328.847 326.361, 307.500 331.034 C 302 332.238, 292.376 334.526, 286.113 336.119 C 269.151 340.433, 234.289 342.443, 191 341.604 C 153.851 340.884, 138.630 339.896, 131.500 337.744 C 128.750 336.914, 122.900 335.456, 118.500 334.504 C 106.842 331.981, 79.483 323.801, 73.500 321.049 C 72.400 320.543, 69.370 319.229, 66.767 318.128 C 60.178 315.343, 55.516 311.555, 52.645 306.658 C 50.230 302.536, 48.364 290.500, 46.574 267.500 C 43.993 234.325, 41.452 208.053, 39.708 196.500 C 38.548 188.819, 38.361 188.431, 35.015 186.761 L 31.530 185.022 31.446 160.261 C 31.398 145.929, 30.890 133.394, 30.241 130.500 C 28.808 124.113, 28.734 97.493, 30.113 84.500 C 30.697 79, 31.822 68.425, 32.614 61 C 33.406 53.575, 34.281 45.250, 34.558 42.500 L 35.062 37.500 32.540 42.500 C 31.152 45.250, 29.805 48.850, 29.545 50.500 C 29.286 52.150, 28.396 57.775, 27.568 63 C 25.734 74.573, 24.020 107.260, 23.126 147.721 C 22.420 179.689, 21.747 183.862, 18.618 175.669 C 14.997 166.190, 10.326 166.214, 7.657 175.725 C 6.746 178.974, 6 182.360, 6 183.251 C 6 184.141, 5.554 186.042, 5.009 187.475 C 4.164 189.700, 3.726 189.923, 2.009 189.005 C 0.082 187.974, -0 188.228, -0 195.221 C -0 199.232, 0.392 203.882, 0.872 205.554 C 1.352 207.227, 1.406 210.824, 0.992 213.548 C 0.014 219.993, 1.109 222.601, 5.579 224.468 C 7.586 225.307, 10.734 227.315, 12.574 228.931 C 14.415 230.547, 18.076 233.097, 20.710 234.598 C 30.558 240.209, 35.090 246.514, 32.834 251.465 C 31.916 253.479, 32.011 255.219, 33.289 259.816 C 34.177 263.009, 35.879 273.695, 37.072 283.561 C 38.867 298.403, 39.744 302.583, 42.151 307.773 C 43.751 311.223, 45.479 316.173, 45.989 318.773 C 46.500 321.373, 47.872 325.975, 49.039 329 C 50.205 332.025, 51.569 335.850, 52.071 337.500 C 52.572 339.150, 55.612 343.243, 58.825 346.596 C 63.486 351.459, 65.475 352.820, 68.665 353.330 C 70.864 353.682, 73.514 354.911, 74.556 356.061 C 76.421 358.123, 76.413 358.180, 74.032 359.976 C 72.703 360.978, 69.958 362.295, 67.933 362.902 C 65.818 363.535, 62.592 365.815, 60.358 368.253 C 56.192 372.800, 54.213 377.979, 51.476 391.500 C 50.585 395.900, 49.480 400.441, 49.022 401.592 C 47.662 404.999, 42.124 406.884, 31.416 407.585 C 24.324 408.049, 19.079 409.074, 13 411.184 C 8.325 412.807, 3.487 414.382, 2.250 414.684 L -0 415.233 -0 502.083 L -0 588.933 4.661 594.217 C 7.225 597.122, 10.488 600.570, 11.911 601.878 C 20.626 609.883, 23.045 611.941, 27.960 615.522 C 34.163 620.041, 34.849 620.468, 41.979 624.250 L 47.164 627 103.960 627 C 151.132 627, 160.950 626.765, 161.905 625.615 C 162.781 624.560, 162.666 623.085, 161.423 619.424 C 159.898 614.934, 158.752 610.898, 155.479 598.500 C 154.753 595.750, 153.249 590.125, 152.138 586 C 148.192 571.354, 146.098 563.050, 145.030 557.809 C 142.961 547.659, 139.983 531.444, 138.476 522.122 C 137.642 516.963, 136.768 512.433, 136.534 512.055 C 136.300 511.676, 135.639 507.571, 135.066 502.933 C 134.493 498.295, 133.586 492.475, 133.051 490 C 131.586 483.229, 127.987 457.930, 127.994 454.450 C 128.001 450.825, 129.564 449, 132.661 449 C 135.388 449, 136.599 452.688, 138.575 467 C 141.869 490.857, 143.022 498.677, 143.589 501 C 143.925 502.375, 144.805 507.325, 145.545 512 C 149.213 535.166, 154.790 562.728, 160.114 584 C 160.734 586.475, 161.829 590.975, 162.549 594 C 163.269 597.025, 164.800 602.875, 165.953 607 C 167.105 611.125, 168.667 616.920, 169.423 619.878 C 170.179 622.836, 171.405 625.642, 172.149 626.113 C 172.892 626.584, 183.287 626.976, 195.250 626.985 C 212.396 626.997, 217 626.726, 217 625.705 C 217 624.992, 214.750 619.320, 212 613.099 C 209.250 606.878, 206.997 601.273, 206.994 600.644 C 206.990 600.015, 206.330 598.240, 205.527 596.699 C 204.723 595.159, 203.636 592.459, 203.110 590.699 C 202.584 588.940, 200.490 583, 198.456 577.500 C 196.422 572, 194.150 565.475, 193.407 563 C 189.385 549.592, 187.939 544.677, 185.612 536.500 C 184.204 531.550, 182.364 525.250, 181.523 522.500 C 178.969 514.144, 173.662 493.919, 169.060 475 C 167.183 467.283, 164.062 450.173, 164.018 447.357 C 163.993 445.758, 167.126 444.726, 168.335 445.935 C 169.659 447.259, 171.717 453.345, 172.557 458.421 C 172.928 460.665, 173.615 463.230, 174.083 464.122 C 174.872 465.626, 176.737 473.172, 178.997 484 C 179.514 486.475, 180.626 491.087, 181.468 494.250 C 182.311 497.413, 183.723 502.813, 184.606 506.250 C 186.199 512.448, 188.079 519.480, 191.489 532 C 194.816 544.213, 203.073 569.710, 207.033 580 C 208.197 583.025, 209.559 586.850, 210.060 588.500 C 210.560 590.150, 211.407 592.400, 211.940 593.500 C 212.474 594.600, 214.076 598.425, 215.500 602 C 216.924 605.575, 218.496 609.400, 218.992 610.500 C 225.313 624.511, 226.051 625.781, 228.210 626.359 C 229.470 626.697, 251.091 626.979, 276.258 626.986 L 322.017 627 325.933 618.750 C 331.843 606.301, 335.325 598.524, 339.926 587.500 C 344.779 575.873, 345.159 574.983, 347.825 569 C 349.756 564.668, 352.723 557.351, 355.530 550 C 356.265 548.075, 358.091 543.350, 359.586 539.500 C 361.082 535.650, 362.884 530.700, 363.590 528.500 C 364.296 526.300, 366.511 520, 368.512 514.500 C 373.595 500.530, 377.311 489.018, 383.201 469 C 384.253 465.425, 385.711 460.475, 386.441 458 C 391.174 441.946, 392.474 438.919, 394.897 438.311 C 396.587 437.887, 397.715 438.257, 398.656 439.544 C 401.372 443.259, 400.354 448.099, 391.510 473.500 C 388.446 482.300, 384.617 493.325, 383.001 498 C 381.384 502.675, 378.222 511.675, 375.972 518 C 373.723 524.325, 371.490 530.625, 371.011 532 C 368.471 539.283, 361.801 557.560, 358.967 565 C 357.186 569.675, 355.155 575.075, 354.455 577 C 353.754 578.925, 351.115 584.890, 348.590 590.256 C 346.066 595.622, 344 600.229, 344 600.494 C 344 600.758, 341.525 605.976, 338.500 612.089 C 332.552 624.107, 332.179 625.471, 334.582 626.393 C 335.452 626.727, 383.264 626.974, 440.832 626.943 L 545.500 626.885 550.220 624.193 C 566.549 614.879, 587.109 596.164, 596.527 582.043 L 601.500 574.587 602.073 581.543 C 602.389 585.370, 602.627 549.125, 602.602 501 C 602.578 452.875, 602.420 420.197, 602.251 428.382 L 601.945 443.264 595.723 437.329 C 592.300 434.065, 586.575 429.322, 583 426.789 C 576.494 422.179, 563.559 415, 561.759 415 C 561.233 415, 559.384 414.355, 557.651 413.567 C 550.677 410.397, 538.651 407.903, 513.204 404.352 C 509.360 403.816, 508.395 402.047, 507.507 393.916 C 506.575 385.374, 503.443 382.248, 490.748 377.192 C 485.043 374.920, 476.769 372.095, 472.362 370.916 C 467.954 369.736, 463.320 367.996, 462.064 367.048 C 459.876 365.398, 459.847 365.197, 461.369 362.254 C 462.261 360.528, 466.015 357.149, 469.937 354.542 C 478.388 348.924, 483.542 343.237, 489.343 333.130 C 499.559 315.330, 505.404 300.740, 507.453 287.925 C 508.058 284.142, 510.605 281.323, 517.675 276.613 C 522.016 273.721, 525 268.320, 525 263.354 C 525 260.615, 527.055 247.004, 529.507 233.500 C 530.306 229.100, 531.423 219.200, 531.989 211.500 C 533.507 190.826, 534.842 181.208, 537.121 174.500 C 540.464 164.661, 543.456 162.976, 550.355 167.047 C 553.091 168.661, 553.995 168.820, 554.632 167.797 C 555.450 166.485, 556.216 138.937, 557.501 64.723 C 558.044 33.347, 557.912 22.396, 556.929 17.223 C 555.646 10.474, 553.777 7, 551.428 7 C 550.734 7, 550.017 6.658, 549.833 6.241 C 549.650 5.824, 547.096 4.249, 544.158 2.741 L 538.815 0 393.261 -0 L 247.706 -0 248.391 11.750 M 349.745 24.750 C 346.156 28.503, 345.152 33.902, 344.027 55.490 C 343.451 66.540, 342.428 76.161, 341.482 79.413 C 340.556 82.599, 340.025 87.474, 340.200 91.177 L 340.500 97.500 358 97.532 C 375.465 97.563, 375.516 97.570, 383.495 100.851 C 392.842 104.696, 396.425 106.765, 404.261 112.843 C 407.429 115.301, 410.298 117.035, 410.637 116.697 C 410.975 116.358, 409.733 114.111, 407.876 111.704 C 395.606 95.793, 391.642 90.087, 389.406 85.120 C 388.014 82.029, 386.379 78.600, 385.772 77.500 C 385.165 76.400, 383.625 73.423, 382.349 70.885 C 381.074 68.347, 379.287 65.653, 378.379 64.900 C 374.239 61.464, 369.493 52.242, 366.079 41 C 363.179 31.451, 361.130 27.215, 358.010 24.314 C 354.767 21.299, 352.953 21.395, 349.745 24.750 M 134.537 31.585 C 132.900 34.083, 132.110 36.492, 128.014 51.500 C 126.963 55.350, 125.370 60.975, 124.475 64 C 123.580 67.025, 122.272 73.100, 121.569 77.500 C 120.867 81.900, 119.118 90.225, 117.682 96 C 115.146 106.209, 114.227 110.968, 111.988 125.500 C 111.395 129.350, 110.255 135.489, 109.455 139.143 C 108.402 143.950, 108.028 151.966, 108.100 168.143 C 108.213 193.645, 109.308 201.522, 110.372 184.500 C 111.988 158.652, 115.721 134.923, 120.991 117 C 122.204 112.875, 123.777 107.182, 124.485 104.349 C 127.101 93.892, 129.394 88.470, 133.645 82.696 C 136.040 79.442, 138 75.704, 138 74.390 C 138 71.468, 136.454 71.283, 134.985 74.028 C 134.388 75.143, 133.430 75.766, 132.856 75.411 C 131.108 74.331, 132.773 66.287, 138.530 48 C 141.211 39.482, 141.545 33.260, 139.446 30.940 C 137.156 28.410, 136.565 28.488, 134.537 31.585 M 150.015 45.750 C 150.007 46.438, 149.213 47.801, 148.250 48.780 C 146.016 51.052, 142 59.189, 142 61.443 C 142 64.380, 144.047 62.670, 146.752 57.473 C 151.741 47.888, 151.899 47.454, 150.951 45.955 C 150.321 44.958, 150.026 44.894, 150.015 45.750 M 139.711 65.999 C 139.423 67.098, 139.544 68.218, 139.980 68.487 C 140.415 68.756, 140.985 67.857, 141.247 66.488 C 141.811 63.536, 140.466 63.108, 139.711 65.999 M 325.781 71.706 C 323.841 73.869, 321.049 82.024, 317.633 95.500 C 314.995 105.911, 312.408 113.765, 311.050 115.492 C 310.614 116.046, 308.637 119.583, 306.655 123.351 C 302.680 130.911, 301.217 136.398, 302.898 137.437 C 304.306 138.307, 317.769 130.299, 319.110 127.794 C 319.726 126.644, 319.878 123.359, 319.486 119.681 C 318.853 113.741, 318.960 113.324, 322.239 109 C 327.362 102.243, 328.784 98.722, 330.530 88.473 C 332.593 76.365, 332.251 70.607, 329.445 70.206 C 328.314 70.044, 326.666 70.719, 325.781 71.706 M 169.056 100.036 C 161.636 101.582, 156.712 104.510, 150.718 110.938 C 144.908 117.171, 144.153 118.753, 146.077 120.677 C 147.331 121.931, 154.568 120.604, 156.864 118.698 C 157.863 117.867, 163.705 117.500, 175.903 117.500 C 192.716 117.500, 193.689 117.609, 197.750 119.934 C 200.723 121.637, 202 123.029, 202 124.566 C 202 126.455, 200.769 127.148, 193.256 129.490 C 182.975 132.696, 174 138.185, 174 141.268 C 174 142.409, 174.726 144.145, 175.613 145.125 C 176.645 146.265, 177.682 150.633, 178.493 157.258 C 179.890 168.671, 181.930 173.706, 187.162 178.659 C 191.039 182.329, 196.057 184.586, 202.478 185.549 C 205.980 186.074, 208.416 185.714, 213.023 183.991 C 223.355 180.128, 228.297 173.254, 231.003 158.983 C 231.624 155.711, 233.330 151.956, 235.604 148.858 C 239.774 143.178, 241.703 143.103, 246.175 148.445 C 248.848 151.638, 259.100 160, 260.342 160 C 261.345 160, 261.126 155.529, 260.070 154.450 C 259.158 153.518, 256.802 147.532, 254.933 141.400 C 253.663 137.232, 251.031 135.042, 246.384 134.288 C 241.499 133.495, 239.493 131.001, 234.938 120.058 C 230.557 109.532, 229.705 107.948, 227.211 105.691 C 225.393 104.045, 225.111 104.032, 223.619 105.524 C 221.613 107.530, 221.584 106.785, 224.115 118.071 C 228.182 136.210, 229.067 147.159, 226.724 150.363 C 224.832 152.950, 222.817 151.598, 219.832 145.737 C 214.942 136.138, 212.641 129.167, 209.495 114.432 C 208.855 111.437, 201.682 104.697, 196.213 101.953 C 192.473 100.076, 189.643 99.539, 182.500 99.349 C 177.550 99.217, 171.500 99.526, 169.056 100.036 M 77.994 183.004 C 76.541 183.902, 77.089 189.386, 79.293 196 C 80.118 198.475, 81.177 202.256, 81.646 204.402 C 82.896 210.115, 85.007 210.995, 89.409 207.637 C 93.659 204.396, 93.797 203.224, 90.540 198.063 C 89.187 195.920, 87.763 192.891, 87.375 191.333 C 85.921 185.484, 81.021 181.133, 77.994 183.004 M 236.500 272.054 C 231 272.449, 223.575 273.265, 220 273.866 C 216.425 274.468, 212.972 274.969, 212.327 274.980 C 209.964 275.020, 205 280.176, 205 282.589 C 205 286.613, 208.073 288.673, 215.120 289.373 C 218.629 289.721, 247.460 290.481, 279.188 291.061 C 342.505 292.218, 340.763 292.343, 344.684 286.359 C 346.301 283.892, 346.289 283.576, 344.444 280.130 C 341.854 275.294, 336.563 272.856, 326.581 271.900 C 316.673 270.951, 250.269 271.065, 236.500 272.054 M 257.180 299.057 C 255.540 299.715, 254.953 300.646, 255.180 302.230 C 255.603 305.193, 259.582 305.868, 277.050 305.942 C 286.325 305.982, 290.979 305.621, 291.800 304.800 C 293.815 302.785, 293.166 300.013, 290.435 298.975 C 287.196 297.744, 260.289 297.810, 257.180 299.057 M 132.549 383.360 C 129.496 386.413, 128.488 395.195, 129.351 411.237 C 130.302 428.928, 131.736 437.159, 134.242 439.302 C 136.292 441.055, 136.416 441.031, 138.830 438.428 C 141.123 435.955, 141.735 435.799, 146.905 436.373 C 158.139 437.619, 190.033 439.069, 211 439.286 C 235.203 439.537, 233.057 438.981, 247.337 448.693 C 251.826 451.747, 257.407 455.072, 259.739 456.082 C 264.477 458.136, 267.023 457.615, 276 452.755 C 295.753 442.061, 292.687 443.063, 309.039 441.965 C 317.250 441.414, 325.129 440.521, 326.549 439.981 C 327.969 439.442, 330.788 438.982, 332.815 438.959 C 338.646 438.895, 348.523 434.910, 351.139 431.566 C 353.262 428.852, 353.464 427.462, 353.833 412.967 C 354.257 396.290, 353.724 393.602, 349.689 392.077 C 346.212 390.762, 287.411 388.040, 240.500 387.022 C 199.507 386.132, 166.619 384.100, 159.015 381.988 C 157.082 381.451, 150.867 381.009, 145.205 381.006 C 135.715 381, 134.724 381.185, 132.549 383.360 M 0.478 502 C 0.478 550.125, 0.601 569.813, 0.750 545.750 C 0.899 521.688, 0.899 482.313, 0.750 458.250 C 0.601 434.188, 0.478 453.875, 0.478 502 M 349.754 442.726 C 348.152 444.504, 347.471 446.196, 342 462 C 335.492 480.801, 331.126 491.570, 323.961 506.500 C 307.196 541.430, 289.837 561, 275.616 561 C 269 561, 263.279 557.979, 255.805 550.538 C 242.724 537.515, 234.583 522.667, 220.560 486.257 C 218.602 481.173, 217 476.576, 217 476.041 C 217 475.506, 216.354 473.590, 215.564 471.784 C 214.774 469.978, 212.997 464.900, 211.614 460.500 C 207.159 446.321, 205.398 442.528, 203.107 442.180 C 201.345 441.913, 201 442.374, 201 444.993 C 201 446.715, 201.731 450.459, 202.625 453.312 C 206.581 465.939, 211.267 479.754, 212.576 482.651 C 213.359 484.384, 214 486.240, 214 486.774 C 214 487.619, 216.101 492.946, 219.020 499.500 C 219.510 500.600, 221.014 504.200, 222.363 507.500 C 223.712 510.800, 226.966 517.775, 229.594 523 C 242.418 548.493, 254.832 562.210, 268.944 566.483 C 274.974 568.309, 275.553 568.320, 281.636 566.724 C 285.142 565.805, 289.470 564.028, 291.255 562.776 C 295.459 559.827, 304.658 550.728, 309.226 545 C 315.976 536.537, 326.914 516.835, 333.100 502 C 335.278 496.775, 337.497 491.718, 338.031 490.763 C 338.565 489.807, 339.624 487.332, 340.386 485.263 C 351.851 454.103, 354.245 446.736, 353.828 443.896 C 353.401 440.978, 351.756 440.506, 349.754 442.726 M 597 515.814 C 597 516.811, 598.101 519.849, 599.447 522.564 L 601.895 527.500 601.947 521.950 C 601.999 516.486, 600.859 514, 598.300 514 C 597.585 514, 597 514.816, 597 515.814 M 265.797 572.680 C 264.860 572.927, 263.795 574.070, 263.430 575.222 C 262.550 577.992, 266.343 580.948, 270.816 580.978 C 277.540 581.023, 278.003 581.849, 277.978 593.785 C 277.961 602.199, 277.542 605.413, 276.027 608.750 L 274.098 613 268.049 613 C 260.882 613, 258.009 610.930, 257.985 605.750 C 257.966 601.789, 257.106 600.309, 254.555 599.850 C 252.028 599.395, 250.029 603.215, 250.029 608.500 C 250.029 614.361, 251.890 617.206, 257.466 619.869 C 266.226 624.052, 275.172 622.710, 281.128 616.319 C 285.281 611.863, 285.748 610.262, 286.904 596.490 C 288.058 582.747, 287.763 583.472, 294.033 579 C 296.626 577.150, 295.800 574.255, 292.299 572.923 C 289.892 572.009, 269.074 571.818, 265.797 572.680 M 60.827 630.146 C 59.547 630.506, 165.112 630.845, 295.417 630.900 C 425.721 630.955, 531.996 630.662, 531.583 630.250 C 530.664 629.331, 64.090 629.228, 60.827 630.146" stroke="none" fill="#0a0a09" fill-rule="evenodd"/><path d="M 48.500 1.595 C 47.400 2.437, 43.125 4.898, 39 7.064 C 29.474 12.066, 19.689 19.395, 9.405 29.233 C 4.953 33.493, 1.016 36.682, 0.655 36.322 C 0.295 35.962, -0 69.926, 0 111.798 C 0 187.026, 0.024 187.942, 2.009 189.005 C 3.726 189.923, 4.164 189.700, 5.009 187.475 C 5.554 186.042, 6 184.141, 6 183.251 C 6 182.360, 6.746 178.974, 7.657 175.725 C 10.326 166.214, 14.997 166.190, 18.618 175.669 C 21.747 183.862, 22.420 179.689, 23.126 147.721 C 24.020 107.260, 25.734 74.573, 27.568 63 C 28.396 57.775, 29.286 52.150, 29.545 50.500 C 29.805 48.850, 31.152 45.250, 32.540 42.500 L 35.062 37.500 34.558 42.500 C 34.281 45.250, 33.406 53.575, 32.614 61 C 31.822 68.425, 30.697 79, 30.113 84.500 C 28.734 97.493, 28.808 124.113, 30.241 130.500 C 30.890 133.394, 31.398 145.929, 31.446 160.261 L 31.530 185.022 35.015 186.761 C 38.361 188.431, 38.548 188.819, 39.708 196.500 C 41.452 208.053, 43.993 234.325, 46.574 267.500 C 48.364 290.500, 50.230 302.536, 52.645 306.658 C 55.516 311.555, 60.178 315.343, 66.767 318.128 C 69.370 319.229, 72.400 320.543, 73.500 321.049 C 79.483 323.801, 106.842 331.981, 118.500 334.504 C 122.900 335.456, 128.750 336.914, 131.500 337.744 C 138.630 339.896, 153.851 340.884, 191 341.604 C 234.289 342.443, 269.151 340.433, 286.113 336.119 C 292.376 334.526, 302 332.238, 307.500 331.034 C 328.847 326.361, 331.642 325.696, 336 324.250 C 345.035 321.252, 353.615 316.409, 358.565 311.511 C 364.977 305.168, 372.881 293.272, 375.849 285.500 C 377.109 282.200, 378.783 278.022, 379.570 276.216 C 380.356 274.410, 381 272.306, 381 271.541 C 381 270.776, 383.025 266.081, 385.500 261.107 C 387.975 256.134, 390 251.641, 390 251.123 C 390 249.546, 395.380 238.754, 398.276 234.518 C 399.774 232.328, 401 229.766, 401 228.825 C 401 226.139, 397.165 224.118, 390.674 223.384 C 382.863 222.500, 380.531 220.337, 381.416 214.798 C 382.146 210.235, 384.841 204.564, 388.267 200.384 C 392.449 195.281, 394.734 190.651, 396.386 183.936 C 397.274 180.326, 398 176.556, 398 175.558 C 398 174.560, 399.364 171.360, 401.031 168.446 C 403.271 164.531, 404.211 161.370, 404.635 156.325 C 404.950 152.571, 406.610 145.320, 408.325 140.212 C 412.042 129.135, 411.655 127.817, 404.393 126.845 C 401.702 126.485, 396.125 125.049, 392 123.655 C 373.628 117.446, 361.338 116.303, 353.108 120.037 C 348.890 121.950, 348.784 122.104, 350.431 123.923 C 351.373 124.965, 353.575 126.354, 355.322 127.009 C 365.419 130.796, 373.589 134.687, 376.798 137.237 C 380.259 139.988, 383.979 144.637, 383.993 146.231 C 383.997 146.633, 381.862 147.983, 379.250 149.231 C 373.531 151.963, 372.262 154.336, 371.366 163.967 C 370.598 172.235, 367.835 176.854, 360.155 182.713 C 351.559 189.268, 337.407 190.799, 328.307 186.157 C 320.892 182.374, 313.627 171.257, 312.388 161.797 C 311.423 154.431, 305.789 146, 301.832 146 C 300.685 146, 299.825 146.992, 299.447 148.750 C 299.121 150.262, 298.237 153.075, 297.481 155 C 296.725 156.925, 295.822 159.963, 295.474 161.750 C 294.864 164.885, 292.777 166.066, 291.500 164 C 291.160 163.450, 289.801 163, 288.480 163 C 285.857 163, 284.829 165.517, 282.604 177.394 C 281.441 183.602, 279.075 186.475, 276.910 184.310 C 276.280 183.680, 275.408 179.622, 274.972 175.292 C 274.535 170.962, 273.478 164.963, 272.622 161.960 C 270.209 153.490, 269.004 137.785, 268.954 114.144 C 268.895 86.514, 266.534 45.578, 264.462 36.250 C 263.219 30.657, 259.592 36.363, 258.540 45.565 C 257.694 52.965, 256.902 54.421, 254.191 53.561 C 252.566 53.045, 252.019 51.811, 251.595 47.704 C 251.299 44.842, 250.611 38.225, 250.066 33 C 249.522 27.775, 248.768 18.213, 248.391 11.750 L 247.706 0 219.372 0 L 191.038 0 190.459 2.750 C 189.495 7.332, 188.449 8.485, 184.943 8.829 C 183.097 9.010, 180.327 10.055, 178.786 11.152 C 176.029 13.116, 159.409 33.770, 158.336 36.567 C 158.033 37.355, 157.201 38, 156.487 38 C 152.764 38, 162.611 21.394, 174.276 8 C 181.943 -0.804, 185.862 -0, 135.279 0 L 90.488 0 89.301 2.750 C 83.212 16.855, 78.531 38.375, 76.413 62 C 74.017 88.728, 73.296 95.037, 72.555 95.778 C 72.160 96.173, 71.155 95.598, 70.321 94.498 C 69.043 92.814, 68.909 89.912, 69.464 76 C 69.827 66.925, 70.748 56.350, 71.512 52.500 C 72.275 48.650, 73.378 42.125, 73.963 38 C 75.891 24.394, 77.866 14.734, 78.941 13.659 C 79.524 13.076, 80.015 11.903, 80.034 11.050 C 80.053 10.198, 80.937 7.700, 82 5.500 C 83.063 3.300, 83.947 1.163, 83.966 0.750 C 83.985 0.337, 76.463 0.014, 67.250 0.032 C 53.783 0.057, 50.108 0.364, 48.500 1.595 M 556.671 16.250 C 558.223 22.334, 556.303 165.116, 554.632 167.797 C 553.995 168.820, 553.091 168.661, 550.355 167.047 C 539.086 160.398, 535.020 170.240, 531.989 211.500 C 531.423 219.200, 530.306 229.100, 529.507 233.500 C 527.055 247.004, 525 260.615, 525 263.354 C 525 268.320, 522.016 273.721, 517.675 276.613 C 510.605 281.323, 508.058 284.142, 507.453 287.925 C 505.404 300.740, 499.559 315.330, 489.343 333.130 C 483.542 343.237, 478.388 348.924, 469.937 354.542 C 466.015 357.149, 462.261 360.528, 461.369 362.254 C 459.847 365.197, 459.876 365.398, 462.064 367.048 C 463.320 367.996, 467.954 369.736, 472.362 370.916 C 476.769 372.095, 485.043 374.920, 490.748 377.192 C 503.443 382.248, 506.575 385.374, 507.507 393.916 C 508.395 402.047, 509.360 403.816, 513.204 404.352 C 538.651 407.903, 550.677 410.397, 557.651 413.567 C 559.384 414.355, 561.233 415, 561.759 415 C 563.559 415, 576.494 422.179, 583 426.789 C 586.575 429.322, 592.255 434.022, 595.623 437.234 L 601.746 443.073 602.127 425.787 C 602.337 416.279, 602.246 404.450, 601.927 399.500 C 601.546 393.609, 601.285 398.825, 601.172 414.596 L 601 438.692 593.250 431.350 C 588.987 427.312, 585.132 424.006, 584.683 424.004 C 584.234 424.002, 582.410 422.889, 580.629 421.531 C 578.849 420.173, 575.842 418.366, 573.946 417.516 C 572.051 416.666, 569.825 415.555, 569 415.048 C 565.591 412.954, 560.284 410.711, 557 409.978 C 555.075 409.548, 552.150 408.733, 550.500 408.166 C 544.789 406.206, 528.467 403.070, 520.748 402.451 C 513.376 401.859, 512.966 401.698, 512.398 399.164 C 509.382 385.696, 504.890 378.900, 497.638 376.834 C 495.362 376.186, 492.825 375.102, 492 374.427 C 491.175 373.751, 488.925 372.740, 487 372.180 C 485.075 371.620, 482.150 370.704, 480.500 370.145 C 478.850 369.586, 474.688 368.313, 471.250 367.315 C 466.995 366.079, 465 364.997, 465 363.925 C 465 362.237, 468.997 358, 470.588 358 C 472.104 358, 486.388 343.008, 489.992 337.635 C 493.743 332.042, 504.995 308.805, 507.386 301.715 C 508.274 299.083, 509 295.328, 509 293.369 C 509 288.412, 511.600 284.519, 517.731 280.296 C 520.617 278.309, 523.644 275.665, 524.459 274.422 C 527.142 270.328, 533.998 226.443, 535.963 200.787 C 536.583 192.695, 537.743 183.569, 538.540 180.507 C 539.948 175.102, 543.540 167, 544.529 167 C 544.798 167, 546.870 168.342, 549.134 169.982 C 551.398 171.622, 553.695 172.689, 554.238 172.353 C 554.782 172.017, 556.102 169.763, 557.172 167.345 C 559.023 163.159, 559.146 159.343, 559.719 87.974 L 560.321 13 558.081 13 C 556.050 13, 555.919 13.304, 556.671 16.250 M 349.745 24.750 C 346.156 28.503, 345.152 33.902, 344.027 55.490 C 343.451 66.540, 342.428 76.161, 341.482 79.413 C 340.556 82.599, 340.025 87.474, 340.200 91.177 L 340.500 97.500 358 97.532 C 375.465 97.563, 375.516 97.570, 383.495 100.851 C 392.842 104.696, 396.425 106.765, 404.261 112.843 C 407.429 115.301, 410.298 117.035, 410.637 116.697 C 410.975 116.358, 409.733 114.111, 407.876 111.704 C 395.606 95.793, 391.642 90.087, 389.406 85.120 C 388.014 82.029, 386.379 78.600, 385.772 77.500 C 385.165 76.400, 383.625 73.423, 382.349 70.885 C 381.074 68.347, 379.287 65.653, 378.379 64.900 C 374.239 61.464, 369.493 52.242, 366.079 41 C 363.179 31.451, 361.130 27.215, 358.010 24.314 C 354.767 21.299, 352.953 21.395, 349.745 24.750 M 134.537 31.585 C 132.900 34.083, 132.110 36.492, 128.014 51.500 C 126.963 55.350, 125.370 60.975, 124.475 64 C 123.580 67.025, 122.272 73.100, 121.569 77.500 C 120.867 81.900, 119.118 90.225, 117.682 96 C 115.146 106.209, 114.227 110.968, 111.988 125.500 C 111.395 129.350, 110.255 135.489, 109.455 139.143 C 108.402 143.950, 108.028 151.966, 108.100 168.143 C 108.213 193.645, 109.308 201.522, 110.372 184.500 C 111.988 158.652, 115.721 134.923, 120.991 117 C 122.204 112.875, 123.777 107.182, 124.485 104.349 C 127.101 93.892, 129.394 88.470, 133.645 82.696 C 136.040 79.442, 138 75.704, 138 74.390 C 138 71.468, 136.454 71.283, 134.985 74.028 C 134.388 75.143, 133.430 75.766, 132.856 75.411 C 131.108 74.331, 132.773 66.287, 138.530 48 C 141.211 39.482, 141.545 33.260, 139.446 30.940 C 137.156 28.410, 136.565 28.488, 134.537 31.585 M 150.015 45.750 C 150.007 46.438, 149.213 47.801, 148.250 48.780 C 146.016 51.052, 142 59.189, 142 61.443 C 142 64.380, 144.047 62.670, 146.752 57.473 C 151.741 47.888, 151.899 47.454, 150.951 45.955 C 150.321 44.958, 150.026 44.894, 150.015 45.750 M 139.711 65.999 C 139.423 67.098, 139.544 68.218, 139.980 68.487 C 140.415 68.756, 140.985 67.857, 141.247 66.488 C 141.811 63.536, 140.466 63.108, 139.711 65.999 M 325.781 71.706 C 323.841 73.869, 321.049 82.024, 317.633 95.500 C 314.995 105.911, 312.408 113.765, 311.050 115.492 C 310.614 116.046, 308.637 119.583, 306.655 123.351 C 302.680 130.911, 301.217 136.398, 302.898 137.437 C 304.306 138.307, 317.769 130.299, 319.110 127.794 C 319.726 126.644, 319.878 123.359, 319.486 119.681 C 318.853 113.741, 318.960 113.324, 322.239 109 C 327.362 102.243, 328.784 98.722, 330.530 88.473 C 332.593 76.365, 332.251 70.607, 329.445 70.206 C 328.314 70.044, 326.666 70.719, 325.781 71.706 M 169.056 100.036 C 161.636 101.582, 156.712 104.510, 150.718 110.938 C 144.908 117.171, 144.153 118.753, 146.077 120.677 C 147.331 121.931, 154.568 120.604, 156.864 118.698 C 157.863 117.867, 163.705 117.500, 175.903 117.500 C 192.716 117.500, 193.689 117.609, 197.750 119.934 C 200.723 121.637, 202 123.029, 202 124.566 C 202 126.455, 200.769 127.148, 193.256 129.490 C 182.975 132.696, 174 138.185, 174 141.268 C 174 142.409, 174.726 144.145, 175.613 145.125 C 176.645 146.265, 177.682 150.633, 178.493 157.258 C 179.890 168.671, 181.930 173.706, 187.162 178.659 C 191.039 182.329, 196.057 184.586, 202.478 185.549 C 205.980 186.074, 208.416 185.714, 213.023 183.991 C 223.355 180.128, 228.297 173.254, 231.003 158.983 C 231.624 155.711, 233.330 151.956, 235.604 148.858 C 239.774 143.178, 241.703 143.103, 246.175 148.445 C 248.848 151.638, 259.100 160, 260.342 160 C 261.345 160, 261.126 155.529, 260.070 154.450 C 259.158 153.518, 256.802 147.532, 254.933 141.400 C 253.663 137.232, 251.031 135.042, 246.384 134.288 C 241.499 133.495, 239.493 131.001, 234.938 120.058 C 230.557 109.532, 229.705 107.948, 227.211 105.691 C 225.393 104.045, 225.111 104.032, 223.619 105.524 C 221.613 107.530, 221.584 106.785, 224.115 118.071 C 228.182 136.210, 229.067 147.159, 226.724 150.363 C 224.832 152.950, 222.817 151.598, 219.832 145.737 C 214.942 136.138, 212.641 129.167, 209.495 114.432 C 208.855 111.437, 201.682 104.697, 196.213 101.953 C 192.473 100.076, 189.643 99.539, 182.500 99.349 C 177.550 99.217, 171.500 99.526, 169.056 100.036 M 77.994 183.004 C 76.541 183.902, 77.089 189.386, 79.293 196 C 80.118 198.475, 81.177 202.256, 81.646 204.402 C 82.896 210.115, 85.007 210.995, 89.409 207.637 C 93.659 204.396, 93.797 203.224, 90.540 198.063 C 89.187 195.920, 87.763 192.891, 87.375 191.333 C 85.921 185.484, 81.021 181.133, 77.994 183.004 M 0.211 210.500 C 0.247 216.921, 0.310 217.129, 0.974 213.009 C 1.373 210.540, 1.355 207.390, 0.935 206.009 C 0.423 204.327, 0.185 205.807, 0.211 210.500 M 0.063 221.187 C 0.012 223.377, 0.900 224.393, 4.871 226.687 C 13.069 231.422, 26.387 240.601, 28.500 242.973 C 30.054 244.717, 30.516 246.699, 30.570 251.859 C 30.608 255.512, 31.371 261.976, 32.267 266.225 C 33.162 270.474, 34.377 278.574, 34.967 284.225 C 36.283 296.820, 37.691 303.419, 40.040 308 C 42.195 312.201, 44.736 320.168, 45.475 325.041 C 46.942 334.714, 59.491 352.921, 65.752 354.460 C 67.263 354.831, 69.559 355.821, 70.852 356.658 L 73.205 358.180 68.352 360.439 C 63.775 362.569, 56.475 369.376, 54.191 373.642 C 53.166 375.559, 49.752 389.216, 48.584 396.075 C 47.683 401.367, 44.982 403.687, 38.806 404.471 C 24.036 406.346, 13.893 408.032, 12.288 408.879 C 11.304 409.398, 8.363 410.575, 5.750 411.494 C 3.138 412.413, 1 413.631, 1 414.199 C 1 415.331, 0.787 415.384, 13 411.168 C 19.048 409.080, 24.361 408.046, 31.416 407.585 C 42.124 406.884, 47.662 404.999, 49.022 401.592 C 49.480 400.441, 50.585 395.900, 51.476 391.500 C 54.213 377.979, 56.192 372.800, 60.358 368.253 C 62.592 365.815, 65.818 363.535, 67.933 362.902 C 69.958 362.295, 72.703 360.978, 74.032 359.976 C 76.413 358.180, 76.421 358.123, 74.556 356.061 C 73.514 354.911, 70.864 353.682, 68.665 353.330 C 65.475 352.820, 63.486 351.459, 58.825 346.596 C 55.612 343.243, 52.572 339.150, 52.071 337.500 C 51.569 335.850, 50.205 332.025, 49.039 329 C 47.872 325.975, 46.500 321.373, 45.989 318.773 C 45.479 316.173, 43.751 311.223, 42.151 307.773 C 39.744 302.583, 38.867 298.403, 37.072 283.561 C 35.879 273.695, 34.177 263.009, 33.289 259.816 C 32.011 255.219, 31.916 253.479, 32.834 251.465 C 35.090 246.514, 30.558 240.209, 20.710 234.598 C 18.076 233.097, 14.415 230.547, 12.574 228.931 C 10.734 227.315, 7.582 225.306, 5.570 224.465 C 3.558 223.624, 1.510 221.938, 1.019 220.718 C 0.163 218.590, 0.124 218.609, 0.063 221.187 M 236.500 272.054 C 231 272.449, 223.575 273.265, 220 273.866 C 216.425 274.468, 212.972 274.969, 212.327 274.980 C 209.964 275.020, 205 280.176, 205 282.589 C 205 286.613, 208.073 288.673, 215.120 289.373 C 218.629 289.721, 247.460 290.481, 279.188 291.061 C 342.505 292.218, 340.763 292.343, 344.684 286.359 C 346.301 283.892, 346.289 283.576, 344.444 280.130 C 341.854 275.294, 336.563 272.856, 326.581 271.900 C 316.673 270.951, 250.269 271.065, 236.500 272.054 M 257.180 299.057 C 255.540 299.715, 254.953 300.646, 255.180 302.230 C 255.603 305.193, 259.582 305.868, 277.050 305.942 C 286.325 305.982, 290.979 305.621, 291.800 304.800 C 293.815 302.785, 293.166 300.013, 290.435 298.975 C 287.196 297.744, 260.289 297.810, 257.180 299.057 M 132.549 383.360 C 129.496 386.413, 128.488 395.195, 129.351 411.237 C 130.302 428.928, 131.736 437.159, 134.242 439.302 C 136.292 441.055, 136.416 441.031, 138.830 438.428 C 141.123 435.955, 141.735 435.799, 146.905 436.373 C 158.139 437.619, 190.033 439.069, 211 439.286 C 235.203 439.537, 233.057 438.981, 247.337 448.693 C 251.826 451.747, 257.407 455.072, 259.739 456.082 C 264.477 458.136, 267.023 457.615, 276 452.755 C 295.753 442.061, 292.687 443.063, 309.039 441.965 C 317.250 441.414, 325.129 440.521, 326.549 439.981 C 327.969 439.442, 330.788 438.982, 332.815 438.959 C 338.646 438.895, 348.523 434.910, 351.139 431.566 C 353.262 428.852, 353.464 427.462, 353.833 412.967 C 354.257 396.290, 353.724 393.602, 349.689 392.077 C 346.212 390.762, 287.411 388.040, 240.500 387.022 C 199.507 386.132, 166.619 384.100, 159.015 381.988 C 157.082 381.451, 150.867 381.009, 145.205 381.006 C 135.715 381, 134.724 381.185, 132.549 383.360 M 393.424 438.765 C 392.832 439.169, 391.316 442.650, 390.056 446.500 C 388.795 450.350, 387.142 455.315, 386.382 457.533 C 385.622 459.752, 385.038 462.227, 385.084 463.033 C 385.131 463.840, 387.043 458.875, 389.334 452 C 393.740 438.780, 395.803 436.278, 398.115 441.352 C 399.182 443.696, 398.024 451.736, 395.499 459.500 C 394.910 461.313, 394.955 461.335, 395.984 459.733 C 397.434 457.474, 400 447.670, 400 444.385 C 400 439.321, 396.718 436.516, 393.424 438.765 M 349.754 442.726 C 348.152 444.504, 347.471 446.196, 342 462 C 335.492 480.801, 331.126 491.570, 323.961 506.500 C 307.196 541.430, 289.837 561, 275.616 561 C 269 561, 263.279 557.979, 255.805 550.538 C 242.724 537.515, 234.583 522.667, 220.560 486.257 C 218.602 481.173, 217 476.576, 217 476.041 C 217 475.506, 216.354 473.590, 215.564 471.784 C 214.774 469.978, 212.997 464.900, 211.614 460.500 C 207.159 446.321, 205.398 442.528, 203.107 442.180 C 201.345 441.913, 201 442.374, 201 444.993 C 201 446.715, 201.731 450.459, 202.625 453.312 C 206.581 465.939, 211.267 479.754, 212.576 482.651 C 213.359 484.384, 214 486.240, 214 486.774 C 214 487.619, 216.101 492.946, 219.020 499.500 C 219.510 500.600, 221.014 504.200, 222.363 507.500 C 223.712 510.800, 226.966 517.775, 229.594 523 C 242.418 548.493, 254.832 562.210, 268.944 566.483 C 274.974 568.309, 275.553 568.320, 281.636 566.724 C 285.142 565.805, 289.470 564.028, 291.255 562.776 C 295.459 559.827, 304.658 550.728, 309.226 545 C 315.976 536.537, 326.914 516.835, 333.100 502 C 335.278 496.775, 337.497 491.718, 338.031 490.763 C 338.565 489.807, 339.624 487.332, 340.386 485.263 C 351.851 454.103, 354.245 446.736, 353.828 443.896 C 353.401 440.978, 351.756 440.506, 349.754 442.726 M 165.161 445.879 C 163.595 446.872, 164.735 456.635, 168.094 471 C 169.187 475.675, 170.310 480.566, 170.590 481.868 C 170.869 483.170, 171.295 484.038, 171.536 483.797 C 171.778 483.556, 170.638 477.315, 169.004 469.929 C 166.035 456.512, 165.175 447, 166.930 447 C 167.442 447, 168.768 449.363, 169.878 452.250 C 172.048 457.897, 172.789 456.806, 170.727 451 C 168.589 444.980, 167.769 444.226, 165.161 445.879 M 129.200 450.200 C 128.540 450.860, 127.997 452.772, 127.994 454.450 C 127.987 457.930, 131.586 483.229, 133.051 490 C 133.586 492.475, 134.493 498.295, 135.066 502.933 C 135.639 507.571, 136.300 511.676, 136.534 512.055 C 136.768 512.433, 137.642 516.963, 138.476 522.122 C 141.612 541.521, 143.848 553.179, 144.556 553.829 C 144.958 554.198, 144.977 552.925, 144.597 551 C 141.332 534.437, 129.980 463.503, 129.769 458.345 C 129.553 453.058, 129.833 451.558, 131.202 450.672 C 132.138 450.066, 133.243 449.909, 133.656 450.323 C 134.070 450.737, 135.404 456.346, 136.619 462.788 C 138.822 474.458, 139.745 474.905, 138.089 463.500 C 136.489 452.485, 135.185 449, 132.661 449 C 131.418 449, 129.860 449.540, 129.200 450.200 M 172.116 459.782 C 172.052 461.037, 172.675 463.680, 173.500 465.654 C 174.325 467.629, 175.052 470.202, 175.116 471.372 C 175.217 473.216, 175.296 473.252, 175.710 471.641 C 175.973 470.619, 175.503 467.919, 174.664 465.641 C 173.826 463.364, 172.935 460.600, 172.686 459.500 C 172.284 457.729, 172.219 457.762, 172.116 459.782 M 390.024 474.775 C 384.742 490.188, 384.483 491.067, 385.819 489 C 387.134 486.964, 395.232 462.899, 394.760 462.427 C 394.553 462.220, 392.422 467.777, 390.024 474.775 M 382.116 472.098 C 381.502 473.858, 381.044 476.019, 381.099 476.899 C 381.153 477.780, 381.823 476.507, 382.587 474.072 C 384.187 468.971, 383.788 467.300, 382.116 472.098 M 176.121 475.500 C 176.168 478.377, 178.771 485.924, 178.880 483.500 C 178.929 482.400, 178.321 479.700, 177.529 477.500 C 176.736 475.300, 176.103 474.400, 176.121 475.500 M 139.139 477 C 139.145 477.825, 139.772 482.100, 140.532 486.500 L 141.914 494.500 141.386 487.146 C 140.936 480.867, 139.104 472.600, 139.139 477 M 378.533 484.533 C 377.568 487.602, 376.973 490.306, 377.211 490.544 C 377.448 490.781, 378.433 488.467, 379.400 485.400 C 380.367 482.333, 380.962 479.629, 380.723 479.389 C 380.484 479.150, 379.498 481.465, 378.533 484.533 M 172.625 488.908 C 172.957 491.332, 173.835 494.707, 174.575 496.408 C 176.542 500.926, 176.282 498.449, 174.007 491 C 172.313 485.452, 172.110 485.146, 172.625 488.908 M 180.095 491.500 C 180.064 492.050, 180.665 494.750, 181.430 497.500 C 182.263 500.495, 182.827 501.498, 182.835 500 C 182.847 497.608, 180.213 489.433, 180.095 491.500 M 381.508 499.255 C 377.805 510.024, 377.544 510.970, 378.821 509 C 380.212 506.854, 385.257 491.923, 384.759 491.426 C 384.530 491.197, 383.067 494.720, 381.508 499.255 M 374.245 498 C 373.121 501.575, 370.552 509, 368.537 514.500 C 366.522 520, 364.296 526.300, 363.590 528.500 C 362.884 530.700, 361.069 535.569, 359.556 539.320 C 358.044 543.071, 357.017 546.350, 357.274 546.607 C 358.141 547.474, 377.253 494.222, 376.668 492.570 C 376.459 491.982, 375.369 494.425, 374.245 498 M 142.142 497 C 142.132 498.375, 142.975 504, 144.015 509.500 C 145.610 517.933, 145.817 518.481, 145.333 513 C 144.692 505.749, 142.169 493.094, 142.142 497 M 176 500.821 C 176 502.441, 180.632 519.974, 181.859 523 C 183.669 527.461, 183.063 524.136, 179.891 512.200 C 176.909 500.977, 176 498.318, 176 500.821 M 183.632 506 C 183.966 507.925, 185.245 513.100, 186.473 517.500 C 187.701 521.900, 189.525 528.641, 190.527 532.480 C 191.528 536.319, 192.530 538.909, 192.755 538.235 C 192.980 537.560, 192.497 534.869, 191.683 532.254 C 190.869 529.640, 189.198 523.675, 187.970 519 C 186.742 514.325, 185.127 508.700, 184.381 506.500 C 183.059 502.604, 183.039 502.591, 183.632 506 M 374.508 519.255 C 370.805 530.024, 370.544 530.970, 371.821 529 C 373.212 526.854, 378.257 511.923, 377.759 511.426 C 377.530 511.197, 376.067 514.720, 374.508 519.255 M 597 515.814 C 597 516.811, 598.101 519.849, 599.447 522.564 L 601.895 527.500 601.947 521.950 C 601.999 516.486, 600.859 514, 598.300 514 C 597.585 514, 597 514.816, 597 515.814 M 146.554 524.016 C 147.694 532.549, 148.976 536.108, 148.350 529 C 148.035 525.425, 147.367 521.825, 146.864 521 C 146.275 520.033, 146.165 521.104, 146.554 524.016 M 183.079 526.735 C 183.007 527.867, 184.967 534.884, 190.136 552 C 191.216 555.575, 192.460 559.874, 192.900 561.553 C 193.575 564.128, 196.558 572.613, 201.241 585.282 C 201.806 586.812, 202.449 587.885, 202.668 587.666 C 202.887 587.446, 201.467 582.819, 199.513 577.384 C 197.558 571.948, 193.255 558.500, 189.949 547.500 C 183.227 525.132, 183.189 525.016, 183.079 526.735 M 369.111 534.111 C 367.656 538.285, 368.351 538.980, 370 535 C 370.698 533.315, 371.036 531.702, 370.750 531.417 C 370.465 531.131, 369.727 532.344, 369.111 534.111 M 149.573 540 C 150.409 547.282, 158.406 582.660, 158.789 580.769 C 158.981 579.818, 158.236 575.318, 157.132 570.769 C 156.028 566.221, 154.457 559.350, 153.642 555.500 C 152.826 551.650, 151.460 545.575, 150.607 542 C 149.406 536.964, 149.173 536.514, 149.573 540 M 365.062 545.655 C 363.756 549.420, 360.733 557.607, 358.344 563.849 C 354.067 575.023, 353.147 578.065, 355.004 574.885 C 356.694 571.994, 368.045 540.634, 367.736 539.709 C 367.572 539.215, 366.368 541.891, 365.062 545.655 M 194.106 544 C 194.132 544.825, 194.789 547.075, 195.567 549 L 196.982 552.500 196.376 549 C 195.690 545.033, 194.026 541.369, 194.106 544 M 355 551 C 354.302 552.685, 353.964 554.298, 354.250 554.583 C 354.535 554.869, 355.273 553.656, 355.889 551.889 C 357.344 547.715, 356.649 547.020, 355 551 M 197.161 554 C 201.195 566.624, 203.421 572.912, 203.742 572.592 C 204.209 572.124, 198.160 553.792, 197.285 553.028 C 196.953 552.738, 196.897 553.175, 197.161 554 M 145.059 556.500 C 145.001 558.674, 150.737 582.070, 151.520 582.854 C 152.380 583.713, 151.972 581.696, 148.518 568 C 146.645 560.575, 145.089 555.400, 145.059 556.500 M 351.625 559.979 C 349.369 565.619, 349.716 566.458, 352.092 561.104 C 353.164 558.687, 353.864 556.530, 353.646 556.313 C 353.428 556.095, 352.519 557.745, 351.625 559.979 M 347.468 569.596 C 346.611 571.743, 345.510 574.400, 345.020 575.500 C 344.531 576.600, 341.353 584.025, 337.958 592 C 334.563 599.975, 331.342 607.047, 330.798 607.716 C 330.255 608.385, 329.989 609.468, 330.207 610.122 C 330.425 610.776, 331.872 608.429, 333.422 604.906 C 343.793 581.331, 349.917 566.583, 349.505 566.172 C 349.242 565.908, 348.325 567.450, 347.468 569.596 M 265.797 572.680 C 264.860 572.927, 263.795 574.070, 263.430 575.222 C 262.550 577.992, 266.343 580.948, 270.816 580.978 C 277.540 581.023, 278.003 581.849, 277.978 593.785 C 277.961 602.199, 277.542 605.413, 276.027 608.750 L 274.098 613 268.049 613 C 260.882 613, 258.009 610.930, 257.985 605.750 C 257.966 601.789, 257.106 600.309, 254.555 599.850 C 252.028 599.395, 250.029 603.215, 250.029 608.500 C 250.029 614.361, 251.890 617.206, 257.466 619.869 C 266.226 624.052, 275.172 622.710, 281.128 616.319 C 285.281 611.863, 285.748 610.262, 286.904 596.490 C 288.058 582.747, 287.763 583.472, 294.033 579 C 296.626 577.150, 295.800 574.255, 292.299 572.923 C 289.892 572.009, 269.074 571.818, 265.797 572.680 M 204 574.214 C 204 576.120, 216.819 608.949, 219.469 613.827 C 221.354 617.299, 221.422 615.726, 219.562 611.651 C 218.772 609.918, 216.952 605.575, 215.518 602 C 214.084 598.425, 212.474 594.600, 211.940 593.500 C 211.407 592.400, 210.560 590.150, 210.060 588.500 C 207.837 581.172, 204 572.127, 204 574.214 M 596.484 582.121 C 587.086 596.187, 566.504 614.904, 550.220 624.193 L 545.500 626.885 443.500 627.167 C 387.400 627.322, 348.925 627.583, 358 627.748 C 367.075 627.913, 409.600 628.482, 452.500 629.013 C 495.400 629.543, 533.425 630.200, 537 630.472 C 540.744 630.757, 542.683 630.624, 541.573 630.158 C 539.783 629.407, 539.771 629.302, 541.405 628.675 C 542.372 628.304, 544.226 628, 545.525 628 C 548.754 628, 558.902 621.895, 569.724 613.441 C 573.473 610.512, 589.241 594.948, 591.894 591.558 C 600.240 580.890, 602.345 577.536, 601.772 575.816 C 601.575 575.225, 599.195 578.062, 596.484 582.121 M 350.231 584.099 C 348.460 588.084, 347.171 591.505, 347.366 591.700 C 347.934 592.267, 354.114 578.841, 353.766 577.797 C 353.593 577.278, 352.002 580.113, 350.231 584.099 M 159.462 586 C 161.042 593.949, 165.409 609.272, 165.779 608.164 C 165.998 607.507, 165.477 604.614, 164.622 601.735 C 163.766 598.856, 162.363 593.599, 161.504 590.054 C 159.840 583.194, 158.294 580.122, 159.462 586 M 152 585.165 C 152 585.989, 152.858 589.551, 153.906 593.082 C 154.955 596.612, 156.367 601.650, 157.044 604.279 C 157.722 606.907, 158.474 608.859, 158.717 608.616 C 159.168 608.165, 153.184 584.850, 152.421 584.088 C 152.189 583.856, 152 584.341, 152 585.165 M 0 590.667 C 0 592.130, 17.565 610.279, 23.541 614.991 C 27.247 617.913, 32.103 621, 32.995 621 C 33.493 621, 34.260 621.563, 34.700 622.250 C 35.871 624.079, 43.442 628, 45.804 628 C 46.922 628, 48.586 628.288, 49.502 628.639 C 50.845 629.154, 50.909 629.460, 49.834 630.215 C 48.995 630.803, 51.099 630.857, 55.500 630.359 C 59.350 629.924, 114.250 629.562, 177.500 629.555 C 240.750 629.549, 275.505 629.415, 254.734 629.260 L 216.968 628.976 217.338 626.738 C 217.542 625.507, 217.516 625.063, 217.281 625.750 C 216.956 626.699, 211.588 627, 194.998 627 C 170.439 627, 170.682 627.069, 169.479 619.770 C 168.818 615.765, 167.083 611.299, 167.042 613.500 C 166.992 616.206, 170.076 625.427, 171.591 627.101 C 173.274 628.960, 172.954 628.996, 156.405 628.811 C 141.906 628.649, 140.781 628.534, 148.500 628 C 153.450 627.658, 132.674 627.293, 102.332 627.189 L 47.164 627 41.979 624.250 C 34.849 620.468, 34.163 620.041, 27.960 615.522 C 23.045 611.941, 20.626 609.883, 11.911 601.878 C 10.488 600.570, 7.225 597.122, 4.661 594.217 C 1.604 590.752, 0 589.530, 0 590.667 M 203.067 590 C 203.067 590.825, 203.937 593.300, 205 595.500 C 206.063 597.700, 206.943 599.950, 206.957 600.500 C 206.997 602.089, 216.233 623.100, 216.691 622.642 C 217.042 622.291, 212.592 611.039, 204.967 593 C 203.921 590.525, 203.066 589.175, 203.067 590 M 340.417 605.642 C 333.815 619.747, 333.310 620.969, 334.690 619.500 C 336.062 618.039, 347.217 593.883, 346.739 593.406 C 346.516 593.183, 343.671 598.689, 340.417 605.642 M 159.099 611.035 C 159.044 611.879, 159.919 615.185, 161.043 618.381 C 162.623 622.876, 162.821 624.510, 161.920 625.596 C 161.213 626.448, 161.154 627, 161.771 627 C 163.921 627, 163.857 623.701, 161.572 616.737 C 160.266 612.757, 159.153 610.191, 159.099 611.035 M 325.176 620.438 L 322.117 626.974 287.558 627.257 L 252.999 627.539 287.750 627.520 L 322.500 627.500 325.844 621.177 C 327.683 617.699, 328.973 614.640, 328.711 614.378 C 328.449 614.116, 326.858 616.843, 325.176 620.438 M 222.470 620.583 C 224.489 625.415, 225.850 627.015, 227.872 626.937 C 229.024 626.892, 228.872 626.620, 227.350 626.006 C 226.160 625.526, 224.677 623.553, 224.027 621.583 C 223.382 619.628, 222.414 617.756, 221.876 617.423 C 221.338 617.091, 221.605 618.512, 222.470 620.583 M 335.250 629.748 C 344.462 629.913, 359.538 629.913, 368.750 629.748 C 377.962 629.583, 370.425 629.448, 352 629.448 C 333.575 629.448, 326.038 629.583, 335.250 629.748" stroke="none" fill="#f1f0ec" fill-rule="evenodd"/></svg>